<svg width="212.2224365234375px" height="122px" xmlns="http://www.w3.org/2000/svg" viewBox="143.88878173828124 14 212.2224365234375 122" style="background: rgba(3, 3, 3, 0.047);" preserveAspectRatio="xMidYMid"><defs><filter id="editing-extrude-glow"><feFlood flood-color="#e0e0d0" result="flood-1"></feFlood><feMorphology operator="erode" radius="1" in="SourceAlpha" result="erode"></feMorphology><feComposite operator="in" in="flood-1" in2="erode" result="comp1"></feComposite><feConvolveMatrix order="3,3" divisor="1" in="comp1" result="convolve" kernelMatrix="0 0 0 1 1 1 0 0 0"></feConvolveMatrix><feOffset dx="-3" dy="0" in="convolve" result="extrude"></feOffset><feComposite operator="in" in="flood-1" in2="extrude" result="comp-extrude"></feComposite><feFlood flood-color="#b4b524" result="flood-2"></feFlood><feComposite operator="in" in="flood-2" in2="SourceAlpha" result="comp2"></feComposite><feMorphology operator="dilate" radius="1" in="comp2" result="dilate"></feMorphology><feOffset dx="-4.5" dy="0" in="dilate" result="offset"></feOffset><feGaussianBlur in="offset" stdDeviation="5.8" result="blur"></feGaussianBlur><feComponentTransfer in="blur" result="shadow"><feFuncA type="linear" slope="0.8" intercept="-0.2"></feFuncA></feComponentTransfer><feMerge><feMergeNode in="shadow"></feMergeNode><feMergeNode in="comp-extrude"></feMergeNode><feMergeNode in="SourceGraphic"></feMergeNode></feMerge></filter></defs><g filter="url(#editing-extrude-glow)"><g transform="translate(178.69367277622223, 97.39999961853027)"><path d="M34.50-13.25L34.50-13.25L34.50-13.25Q36.16-12.03 36.16-9.44L36.16-9.44L36.16-9.44Q36.16-6.85 35.04-5.02L35.04-5.02L35.04-5.02Q33.92-3.20 31.74-1.79L31.74-1.79L31.74-1.79Q27.07 1.22 18.91 1.22L18.91 1.22L18.91 1.22Q10.75 1.22 6.30-3.04L6.30-3.04L6.30-3.04Q1.86-7.30 1.86-14.85L1.86-14.85L1.86-14.85Q1.86-25.54 7.42-33.66L7.42-33.66L7.42-33.66Q11.65-39.68 19.20-42.24L19.20-42.24L19.20-42.24Q23.10-43.52 26.94-43.52L26.94-43.52L26.94-43.52Q30.78-43.52 33.15-43.01L33.15-43.01L33.15-43.01Q35.52-42.50 37.31-41.47L37.31-41.47L37.31-41.47Q41.22-39.23 41.22-35.65L41.22-35.65L41.22-35.65Q41.22-32.38 38.14-29.95L38.14-29.95L38.14-29.95Q35.33-27.78 33.02-27.78L33.02-27.78L33.02-27.78Q30.72-27.78 29.76-28.10L29.76-28.10L29.76-28.10Q30.02-30.40 30.02-31.90L30.02-31.90L30.02-31.90Q30.02-33.41 29.95-34.50L29.95-34.50L29.95-34.50Q29.89-35.58 29.57-36.61L29.57-36.61L29.57-36.61Q28.93-38.98 26.98-38.98L26.98-38.98L26.98-38.98Q25.02-38.98 23.07-37.15L23.07-37.15L23.07-37.15Q21.12-35.33 19.46-32.26L19.46-32.26L19.46-32.26Q15.68-25.28 15.68-17.02L15.68-17.02L15.68-17.02Q15.68-13.06 17.92-10.78L17.92-10.78L17.92-10.78Q20.16-8.51 24.96-8.51L24.96-8.51L24.96-8.51Q28.54-8.51 31.94-10.88L31.94-10.88L31.94-10.88Q33.41-11.90 34.50-13.25ZM43.07-39.68L43.07-39.68L43.07-39.68Q43.97-41.47 45.92-42.46L45.92-42.46L45.92-42.46Q47.87-43.46 50.56-43.46L50.56-43.46L50.56-43.46Q54.78-43.46 57.31-40.42L57.31-40.42L57.31-40.42Q59.84-37.38 59.84-30.72L59.84-30.72L59.84-7.87L74.50-42.18L82.05-42.18L83.78-9.79L83.58-7.94L98.82-42.18L107.58-42.18L87.10 0L73.47 0L72.19-19.46L63.74 0L48.32 0L46.40-30.72L46.40-30.72Q46.21-34.18 45.28-36.45L45.28-36.45L45.28-36.45Q44.35-38.72 43.07-39.68ZM129.47-29.57L129.47-29.57L129.47-29.57Q130.43-31.49 130.43-33.28L130.43-33.28L130.43-33.28Q130.43-35.07 130.24-36.06L130.24-36.06L130.24-36.06Q130.05-37.06 129.60-37.82L129.60-37.82L129.60-37.82Q128.64-39.49 126.72-39.49L126.72-39.49L126.72-39.49Q124.35-39.49 122.43-37.76L122.43-37.76L122.43-37.76Q120.38-35.97 120.38-33.15L120.38-33.15L120.38-33.15Q120.38-31.36 121.63-29.98L121.63-29.98L121.63-29.98Q122.88-28.61 124.80-27.33L124.80-27.33L124.80-27.33Q126.72-26.05 128.90-24.77L128.90-24.77L128.90-24.77Q131.07-23.49 132.99-21.95L132.99-21.95L132.99-21.95Q137.41-18.43 137.41-13.70L137.41-13.70L137.41-13.70Q137.41-10.50 135.71-7.78L135.71-7.78L135.71-7.78Q134.02-5.06 131.20-3.07L131.20-3.07L131.20-3.07Q125.06 1.28 116.93 1.28L116.93 1.28L116.93 1.28Q110.34 1.28 106.94-0.86L106.94-0.86L106.94-0.86Q103.55-3.01 103.55-6.27L103.55-6.27L103.55-6.27Q103.55-12.10 108.10-13.57L108.10-13.57L108.10-13.57Q109.38-14.02 111.33-14.02L111.33-14.02L111.33-14.02Q113.28-14.02 115.52-13.18L115.52-13.18L115.52-13.18Q114.50-10.56 114.50-8.19L114.50-8.19L114.50-8.19Q114.50-3.07 118.14-3.07L118.14-3.07L118.14-3.07Q120.51-3.07 122.46-4.80L122.46-4.80L122.46-4.80Q124.42-6.53 124.42-8.48L124.42-8.48L124.42-8.48Q124.42-10.43 123.17-11.84L123.17-11.84L123.17-11.84Q121.92-13.25 120.06-14.37L120.06-14.37L120.06-14.37Q118.21-15.49 116.06-16.58L116.06-16.58L116.06-16.58Q113.92-17.66 112.06-19.20L112.06-19.20L112.06-19.20Q107.71-22.72 107.71-28.35L107.71-28.35L107.71-28.35Q107.71-32 109.50-34.85L109.50-34.85L109.50-34.85Q111.30-37.70 114.18-39.62L114.18-39.62L114.18-39.62Q119.94-43.52 127.01-43.52L127.01-43.52L127.01-43.52Q134.08-43.52 137.50-41.41L137.50-41.41L137.50-41.41Q140.93-39.30 140.93-35.71L140.93-35.71L140.93-35.71Q140.93-32.58 138.50-30.59L138.50-30.59L138.50-30.59Q136.38-28.93 133.82-28.93L133.82-28.93L133.82-28.93Q131.26-28.93 129.47-29.57Z" fill="#35578f"></path></g></g><style>text {
  font-size: 64px;
  font-family: Arial Black;
  dominant-baseline: central;
  text-anchor: middle;
}</style></svg>